{"title":"Better Late Than Never - S01E01 - Welcome To Tokyo","uid":15978601,"size":331642423,"categoryP":"video","categoryS":"tv_shows","magnet":"?xt=urn:btih:be2694f59e1a45ea29fba0068326c7a0ad54fd34&amp;dn=Better+Late+Than+Never+-+S01E01+-+Welcome+To+Tokyo&amp;tr=udp%3A%2F%2Ftracker.leechers-paradise.org%3A6969&amp;tr=udp%3A%2F%2Fzer0day.ch%3A1337&amp;tr=udp%3A%2F%2Fopen.demonii.com%3A1337&amp;tr=udp%3A%2F%2Ftracker.coppersurfer.tk%3A6969&amp;tr=udp%3A%2F%2Fexodus.desync.com%3A6969","seeders":5,"leechers":3,"uploader":"Bullrout","files":1,"time":1475871251,"description":"Better Late Than Never - S01E01 - Welcome To Tokyo\r\n\r\nCelebrities Henry Winkler, William Shatner, Terry Bradshaw and George Foreman travel to Tokyo with comic and guide Jeff Dye to take part in local traditions, sample food and meet the local population.\r\n\r\n\r\nComplete name                            : Better Late Than Never - S01E01 - Welcome To Tokyo.mp4\r\nFormat                                   : MPEG-4\r\nFormat profile                           : Base Media / Version 2\r\nCodec ID                                 : mp42 (mp42/isom/avc1)\r\nFile size                                : 316 MiB\r\nDuration                                 : 40 min 1 s\r\nOverall bit rate mode                    : Variable\r\nOverall bit rate                         : 1 105 kb/s\r\n\r\nVideo\r\nID                                       : 2\r\nFormat                                   : AVC\r\nFormat/Info                              : Advanced Video Codec\r\nFormat profile                           :   \r\nFormat settings, CABAC                   : Yes\r\nFormat settings, ReFrames                : 3 frames\r\nCodec ID                                 : avc1\r\nCodec ID/Info                            : Advanced Video Coding\r\nDuration                                 : 40 min 1 s\r\nBit rate mode                            : Variable\r\nBit rate                                 : 973 kb/s\r\nMaximum bit rate                         : 1 000 kb/s\r\nWidth                                    : 720 pixels\r\nHeight                                   : 404 pixels\r\nDisplay aspect ratio                     : 16:9\r\nOriginal display aspect ratio            : 16:9\r\nFrame rate mode                          : Constant\r\nFrame rate                               : 25.000 FPS\r\nStandard                                 : PAL\r\nColor space                              : YUV\r\nChroma subsampling                       : 4:2:0\r\nBit depth                                : 8 bits\r\nScan type                                : Progressive\r\nBits/(Pixel*Frame)                       : 0.134\r\nStream size                              : 279 MiB (88%)\r\nWriting library                          : x264 core 112\r\nColor range                              : Limited\r\nColor primaries                          : BT.601 PAL\r\nTransfer characteristics                 : BT.470 System B, BT.470 System G\r\nMatrix coefficients                      : BT.601\r\n\r\nAudio\r\nID                                       : 1\r\nFormat                                   : AAC\r\nFormat/Info                              : Advanced Audio Codec\r\nFormat profile                           : LC\r\nCodec ID                                 : 40\r\nDuration                                 : 40 min 1 s\r\nBit rate mode                            : Variable\r\nBit rate                                 : 128 kb/s\r\nMaximum bit rate                         : 576 kb/s\r\nChannel(s)                               : 2 channels\r\nChannel positions                        : Front: L R\r\nSampling rate                            : 48.0 kHz\r\nFrame rate                               : 46.875 FPS (1024 spf)\r\nCompression mode                         : Lossy\r\nStream size                              : 36.7 MiB (12%)","torrent":{"xt":"urn:btih:be2694f59e1a45ea29fba0068326c7a0ad54fd34","amp;dn":"Better+Late+Than+Never+-+S01E01+-+Welcome+To+Tokyo","amp;tr":["udp%3A%2F%2Ftracker.leechers-paradise.org%3A6969","udp%3A%2F%2Fzer0day.ch%3A1337","udp%3A%2F%2Fopen.demonii.com%3A1337","udp%3A%2F%2Ftracker.coppersurfer.tk%3A6969","udp%3A%2F%2Fexodus.desync.com%3A6969"],"infoHash":"be2694f59e1a45ea29fba0068326c7a0ad54fd34","infoHashBuffer":{"type":"Buffer","data":[190,38,148,245,158,26,69,234,41,251,160,6,131,38,199,160,173,84,253,52]},"announce":[],"urlList":[]}}